# xmcd CD database file
#
# Track frame offsets:
#	183
#	18658
#	32088
#
# Disc length: 622 seconds
#
# Revision: 0
# Processed by: cddbd v1.5.2PL0 Copyright (c) Steve Scherf et al.
# Submitted via: CDex 1.51
#
DISCID=1d026c03
DTITLE=Viktor Lazlo - Teach me to Dance
DYEAR=1991
DGENRE=Jazz
TTITLE0=Teach me to dance
TTITLE1=Easy to lose
TTITLE2=Desir Fou
EXTD=YEAR: 1991
EXTT0=
EXTT1=
EXTT2=
PLAYORDER=
